<svg width="100%" height="100%" viewBox="0 0 128 128" version="1.1" xmlns="http://www.w3.org/2000/svg" xmlns:xlink="http://www.w3.org/1999/xlink" xml:space="preserve" class="svg-icon svg-icon-myles-lab">
    <g class="svg-icon-myles-lab-container">
        <path d="M123.657,112.343l-21.346,-30.343l-28.334,0c0.633,-0.838 1.023,-1.869 1.023,-3c0,-2.761 -2.239,-5 -5,-5c-2.761,0 -5,2.239 -5,5c0,1.131 0.39,2.162 1.023,3l-40.023,0l-21.657,30.343c-1.448,1.448 -2.343,3.448 -2.343,5.657c0,2.209 0.895,4.209 2.343,5.657c1.448,1.448 3.448,2.343 5.657,2.343l108,0c2.209,0 4.209,-0.895 5.657,-2.343c1.448,-1.448 2.343,-3.448 2.343,-5.657c0,-2.209 -0.895,-4.209 -2.343,-5.657l0,0ZM61,100c-1.657,0 -3,-1.343 -3,-3c0,-1.657 1.343,-3 3,-3c1.657,0 3,1.343 3,3c0,1.657 -1.343,3 -3,3ZM69,112c-0.552,0 -1,-0.448 -1,-1c0,-0.552 0.448,-1 1,-1c0.552,0 1,0.448 1,1c0,0.552 -0.448,1 -1,1Z" class="svg-icon-myles-lab-liqud"/>
        <circle cx="60" cy="68" r="2" class="svg-icon-myles-lab-liqud"/>
        <path d="M95,73l-10,0" class="svg-icon-myles-lab-beaker"/>
        <path d="M88,63l-9,0" class="svg-icon-myles-lab-beaker"/>
        <path d="M81,53l-8,0" class="svg-icon-myles-lab-beaker"/>
        <path d="M81,43l-8,0" class="svg-icon-myles-lab-beaker"/>
        <path d="M81,33l-8,0" class="svg-icon-myles-lab-beaker"/>
        <path d="M81,23l-8,0" class="svg-icon-myles-lab-beaker"/>
        <path d="M81,13l-8,0" class="svg-icon-myles-lab-beaker"/>
        <path d="M84,0l0,52.057l41.274,59.108l0.099,0.13l0.127,0.17l0.126,0.172l0.125,0.175l0.125,0.177l0.124,0.18l0.122,0.182l0.12,0.185l0.119,0.188l0.114,0.188l0.06,0.1l0.057,0.098l0.056,0.098l0.056,0.099l0.055,0.1l0.054,0.101l0.053,0.101l0.053,0.103l0.052,0.103l0.051,0.104l0.051,0.105l0.049,0.106l0.048,0.107l0.048,0.108l0.046,0.109l0.045,0.11l0.045,0.11l0.043,0.111l0.042,0.113l0.04,0.113l0.04,0.115l0.038,0.115l0.037,0.116l0.036,0.117l0.034,0.118l0.032,0.119l0.032,0.12l0.029,0.121l0.029,0.122l0.026,0.123l0.025,0.123l0.024,0.124l0.021,0.126l0.02,0.126l0.019,0.127l0.016,0.128l0.015,0.128l0.012,0.13l0.011,0.13l0.009,0.131l0.007,0.131l0.005,0.132l0.003,0.133l0.001,0.133l-0.001,0.13l-0.002,0.128l-0.004,0.128l-0.006,0.128l-0.007,0.127l-0.009,0.127l-0.01,0.127l-0.012,0.126l-0.014,0.126l-0.015,0.125l-0.017,0.125l-0.018,0.124l-0.02,0.124l-0.021,0.124l-0.023,0.123l-0.024,0.122l-0.026,0.122l-0.027,0.121l-0.029,0.121l-0.03,0.12l-0.031,0.12l-0.033,0.119l-0.035,0.119l-0.036,0.118l-0.037,0.117l-0.039,0.117l-0.04,0.116l-0.041,0.115l-0.043,0.115l-0.044,0.114l-0.046,0.113l-0.046,0.113l-0.049,0.112l-0.049,0.111l-0.051,0.111l-0.052,0.109l-0.053,0.109l-0.055,0.109l-0.056,0.107l-0.057,0.107l-0.058,0.106l-0.06,0.105l-0.061,0.104l-0.062,0.104l-0.063,0.102l-0.064,0.102l-0.066,0.101l-0.067,0.1l-0.068,0.1l-0.069,0.098l-0.07,0.098l-0.071,0.096l-0.073,0.096l-0.073,0.095l-0.075,0.094l-0.076,0.093l-0.077,0.092l-0.078,0.091l-0.079,0.09l-0.08,0.089l-0.081,0.088l-0.082,0.088l-0.084,0.086l-0.084,0.085l-0.085,0.084l-0.086,0.084l-0.088,0.082l-0.088,0.081l-0.089,0.08l-0.09,0.079l-0.091,0.078l-0.092,0.077l-0.093,0.076l-0.094,0.075l-0.095,0.073l-0.096,0.073l-0.096,0.071l-0.098,0.07l-0.098,0.069l-0.1,0.068l-0.1,0.067l-0.101,0.066l-0.102,0.064l-0.102,0.063l-0.104,0.062l-0.104,0.061l-0.105,0.06l-0.106,0.058l-0.107,0.057l-0.107,0.056l-0.109,0.055l-0.109,0.053l-0.109,0.052l-0.111,0.051l-0.111,0.049l-0.112,0.049l-0.113,0.046l-0.113,0.046l-0.114,0.044l-0.115,0.043l-0.115,0.041l-0.116,0.04l-0.117,0.039l-0.117,0.037l-0.118,0.036l-0.119,0.035l-0.119,0.033l-0.12,0.031l-0.12,0.03l-0.121,0.029l-0.121,0.027l-0.122,0.026l-0.122,0.024l-0.123,0.023l-0.124,0.021l-0.124,0.02l-0.124,0.018l-0.125,0.017l-0.125,0.015l-0.126,0.014l-0.126,0.012l-0.127,0.01l-0.127,0.009l-0.127,0.007l-0.128,0.006l-0.128,0.004l-0.128,0.002l-0.123,0.001l-108.012,0l-0.123,-0.001l-0.128,-0.002l-0.128,-0.004l-0.128,-0.006l-0.127,-0.007l-0.127,-0.009l-0.127,-0.01l-0.126,-0.012l-0.126,-0.014l-0.125,-0.015l-0.125,-0.017l-0.124,-0.018l-0.124,-0.02l-0.124,-0.021l-0.123,-0.023l-0.122,-0.024l-0.122,-0.026l-0.121,-0.027l-0.121,-0.029l-0.12,-0.03l-0.12,-0.031l-0.119,-0.033l-0.119,-0.035l-0.118,-0.036l-0.117,-0.037l-0.117,-0.039l-0.116,-0.04l-0.115,-0.041l-0.115,-0.043l-0.114,-0.044l-0.113,-0.046l-0.113,-0.046l-0.112,-0.049l-0.111,-0.049l-0.111,-0.051l-0.109,-0.052l-0.109,-0.053l-0.109,-0.055l-0.107,-0.056l-0.107,-0.057l-0.106,-0.058l-0.105,-0.06l-0.104,-0.061l-0.104,-0.062l-0.102,-0.063l-0.102,-0.064l-0.101,-0.066l-0.1,-0.067l-0.1,-0.068l-0.098,-0.069l-0.098,-0.07l-0.096,-0.071l-0.096,-0.073l-0.095,-0.073l-0.094,-0.075l-0.093,-0.076l-0.092,-0.077l-0.091,-0.078l-0.09,-0.079l-0.089,-0.08l-0.088,-0.081l-0.088,-0.082l-0.086,-0.084l-0.085,-0.084l-0.084,-0.085l-0.084,-0.086l-0.082,-0.087l-0.081,-0.089l-0.08,-0.089l-0.079,-0.09l-0.078,-0.091l-0.077,-0.092l-0.076,-0.093l-0.075,-0.094l-0.073,-0.095l-0.073,-0.096l-0.071,-0.096l-0.07,-0.098l-0.069,-0.098l-0.068,-0.1l-0.067,-0.1l-0.066,-0.101l-0.064,-0.102l-0.063,-0.102l-0.062,-0.104l-0.061,-0.104l-0.06,-0.105l-0.058,-0.106l-0.057,-0.107l-0.056,-0.107l-0.055,-0.109l-0.053,-0.109l-0.052,-0.109l-0.051,-0.111l-0.049,-0.111l-0.049,-0.112l-0.046,-0.113l-0.046,-0.113l-0.044,-0.114l-0.043,-0.115l-0.041,-0.115l-0.04,-0.116l-0.039,-0.117l-0.037,-0.117l-0.036,-0.118l-0.035,-0.119l-0.033,-0.119l-0.031,-0.12l-0.03,-0.12l-0.029,-0.121l-0.027,-0.121l-0.026,-0.122l-0.024,-0.122l-0.023,-0.123l-0.021,-0.124l-0.02,-0.124l-0.018,-0.124l-0.017,-0.125l-0.015,-0.125l-0.014,-0.126l-0.012,-0.126l-0.01,-0.127l-0.009,-0.127l-0.007,-0.127l-0.006,-0.128l-0.004,-0.128l-0.002,-0.128l-0.001,-0.13l0.001,-0.133l0.003,-0.132l0.005,-0.133l0.007,-0.131l0.009,-0.131l0.011,-0.13l0.012,-0.129l0.015,-0.129l0.016,-0.128l0.018,-0.127l0.02,-0.126l0.022,-0.125l0.023,-0.124l0.025,-0.124l0.027,-0.122l0.028,-0.122l0.03,-0.121l0.031,-0.12l0.033,-0.119l0.034,-0.118l0.035,-0.117l0.037,-0.116l0.038,-0.116l0.04,-0.114l0.041,-0.113l0.042,-0.113l0.043,-0.111l0.044,-0.111l0.045,-0.11l0.047,-0.108l0.047,-0.108l0.048,-0.107l0.05,-0.106l0.05,-0.105l0.051,-0.105l0.052,-0.103l0.053,-0.103l0.053,-0.101l0.054,-0.101l0.055,-0.1l0.056,-0.099l0.056,-0.098l0.057,-0.098l0.06,-0.1l0.114,-0.188l0.119,-0.188l0.121,-0.185l0.122,-0.183l0.124,-0.18l0.124,-0.177l0.126,-0.174l0.127,-0.173l0.127,-0.17l0.098,-0.129l41.274,-59.108l0,-52.057l40,0ZM48,53.315l-42.04,60.206l-0.139,0.182l-0.107,0.143l-0.105,0.143l-0.102,0.142l-0.1,0.142l-0.097,0.141l-0.094,0.14l-0.091,0.141l-0.088,0.139l-0.087,0.143l-0.04,0.066l-0.04,0.069l-0.04,0.069l-0.038,0.069l-0.038,0.069l-0.037,0.069l-0.036,0.069l-0.036,0.068l-0.034,0.069l-0.034,0.068l-0.032,0.068l-0.032,0.068l-0.031,0.068l-0.029,0.068l-0.029,0.068l-0.028,0.068l-0.027,0.068l-0.027,0.067l-0.025,0.068l-0.024,0.067l-0.023,0.068l-0.023,0.068l-0.021,0.067l-0.021,0.068l-0.019,0.067l-0.019,0.068l-0.017,0.068l-0.017,0.068l-0.016,0.068l-0.015,0.068l-0.013,0.068l-0.013,0.068l-0.012,0.069l-0.011,0.069l-0.01,0.069l-0.009,0.069l-0.008,0.07l-0.007,0.07l-0.005,0.071l-0.005,0.071l-0.004,0.071l-0.003,0.072l-0.001,0.072l-0.001,0.074l0.001,0.077l0.001,0.078l0.002,0.077l0.004,0.077l0.004,0.077l0.006,0.077l0.006,0.076l0.007,0.076l0.008,0.075l0.009,0.076l0.01,0.075l0.011,0.074l0.012,0.075l0.013,0.073l0.013,0.074l0.015,0.073l0.015,0.073l0.017,0.073l0.017,0.072l0.018,0.072l0.019,0.072l0.019,0.071l0.021,0.071l0.021,0.07l0.023,0.07l0.023,0.07l0.024,0.069l0.024,0.069l0.026,0.069l0.026,0.068l0.028,0.068l0.028,0.067l0.028,0.067l0.03,0.066l0.03,0.067l0.032,0.065l0.031,0.065l0.033,0.065l0.034,0.065l0.034,0.064l0.035,0.063l0.036,0.063l0.036,0.063l0.037,0.062l0.038,0.061l0.039,0.062l0.039,0.06l0.04,0.06l0.041,0.06l0.042,0.059l0.042,0.059l0.043,0.058l0.043,0.057l0.045,0.057l0.045,0.057l0.045,0.056l0.046,0.055l0.047,0.055l0.048,0.054l0.048,0.054l0.049,0.053l0.049,0.052l0.051,0.052l0.05,0.052l0.052,0.05l0.051,0.051l0.053,0.049l0.053,0.049l0.054,0.048l0.054,0.048l0.055,0.047l0.055,0.046l0.056,0.045l0.057,0.045l0.057,0.045l0.057,0.043l0.058,0.043l0.059,0.042l0.059,0.042l0.06,0.041l0.06,0.04l0.06,0.039l0.062,0.039l0.061,0.038l0.062,0.037l0.063,0.036l0.063,0.036l0.063,0.035l0.064,0.034l0.065,0.034l0.064,0.033l0.066,0.032l0.066,0.031l0.066,0.03l0.066,0.03l0.067,0.028l0.067,0.028l0.068,0.028l0.068,0.026l0.069,0.026l0.069,0.024l0.069,0.024l0.07,0.023l0.07,0.023l0.07,0.021l0.071,0.021l0.071,0.019l0.072,0.019l0.072,0.018l0.072,0.017l0.073,0.017l0.073,0.015l0.073,0.015l0.074,0.013l0.073,0.013l0.075,0.012l0.074,0.011l0.075,0.01l0.075,0.009l0.076,0.008l0.076,0.007l0.076,0.006l0.077,0.006l0.077,0.004l0.077,0.004l0.077,0.002l0.078,0.001l0.084,0.001l107.988,0l0.084,-0.001l0.078,-0.001l0.077,-0.002l0.077,-0.004l0.077,-0.004l0.077,-0.006l0.076,-0.006l0.076,-0.007l0.076,-0.008l0.075,-0.009l0.075,-0.01l0.074,-0.011l0.075,-0.012l0.073,-0.013l0.074,-0.013l0.073,-0.015l0.073,-0.015l0.073,-0.017l0.072,-0.017l0.072,-0.018l0.072,-0.019l0.071,-0.019l0.071,-0.021l0.07,-0.021l0.07,-0.023l0.07,-0.023l0.069,-0.024l0.069,-0.024l0.069,-0.026l0.068,-0.026l0.068,-0.028l0.067,-0.028l0.067,-0.028l0.066,-0.03l0.066,-0.03l0.066,-0.031l0.065,-0.032l0.065,-0.033l0.065,-0.034l0.064,-0.034l0.063,-0.035l0.063,-0.036l0.063,-0.036l0.062,-0.037l0.061,-0.038l0.062,-0.039l0.06,-0.039l0.06,-0.04l0.06,-0.041l0.059,-0.042l0.059,-0.042l0.058,-0.043l0.057,-0.043l0.057,-0.045l0.057,-0.045l0.056,-0.045l0.055,-0.046l0.055,-0.047l0.054,-0.048l0.054,-0.048l0.053,-0.049l0.052,-0.049l0.052,-0.051l0.052,-0.05l0.05,-0.052l0.051,-0.052l0.049,-0.052l0.049,-0.053l0.048,-0.054l0.048,-0.054l0.047,-0.055l0.046,-0.055l0.045,-0.056l0.045,-0.057l0.045,-0.057l0.043,-0.057l0.043,-0.058l0.042,-0.059l0.042,-0.059l0.041,-0.06l0.04,-0.06l0.039,-0.06l0.039,-0.062l0.038,-0.061l0.037,-0.062l0.036,-0.063l0.036,-0.063l0.035,-0.063l0.034,-0.064l0.034,-0.065l0.033,-0.065l0.032,-0.065l0.031,-0.066l0.03,-0.066l0.03,-0.066l0.028,-0.067l0.028,-0.067l0.028,-0.068l0.026,-0.068l0.026,-0.069l0.024,-0.069l0.024,-0.069l0.023,-0.07l0.023,-0.07l0.021,-0.07l0.021,-0.071l0.019,-0.071l0.019,-0.072l0.018,-0.072l0.017,-0.072l0.017,-0.073l0.015,-0.073l0.015,-0.073l0.013,-0.074l0.013,-0.073l0.012,-0.075l0.011,-0.074l0.01,-0.075l0.009,-0.075l0.008,-0.076l0.007,-0.076l0.006,-0.076l0.006,-0.077l0.004,-0.077l0.004,-0.077l0.002,-0.077l0.001,-0.078l0.001,-0.077l-0.001,-0.074l-0.001,-0.072l-0.003,-0.072l-0.004,-0.071l-0.005,-0.071l-0.005,-0.071l-0.007,-0.07l-0.008,-0.069l-0.009,-0.07l-0.01,-0.069l-0.011,-0.069l-0.012,-0.068l-0.013,-0.069l-0.013,-0.068l-0.015,-0.068l-0.016,-0.068l-0.017,-0.068l-0.017,-0.067l-0.019,-0.068l-0.02,-0.068l-0.02,-0.067l-0.022,-0.068l-0.022,-0.067l-0.023,-0.068l-0.025,-0.068l-0.025,-0.067l-0.026,-0.068l-0.027,-0.068l-0.028,-0.067l-0.029,-0.068l-0.03,-0.068l-0.031,-0.068l-0.032,-0.069l-0.032,-0.068l-0.034,-0.068l-0.034,-0.069l-0.035,-0.068l-0.037,-0.069l-0.037,-0.069l-0.038,-0.069l-0.038,-0.069l-0.04,-0.069l-0.04,-0.069l-0.04,-0.066l-0.087,-0.143l-0.088,-0.14l-0.091,-0.14l-0.094,-0.141l-0.097,-0.141l-0.1,-0.141l-0.102,-0.143l-0.105,-0.143l-0.107,-0.143l-0.138,-0.181l-42.04,-60.206l0,-49.315l-32,0l0,49.315Z" class="svg-icon-myles-lab-beaker"/>
        <path d="M86.185,0.009l0.183,0.025l0.179,0.042l0.175,0.059l0.169,0.075l0.162,0.09l0.152,0.104l0.142,0.118l0.131,0.131l0.118,0.142l0.104,0.152l0.09,0.162l0.075,0.169l0.059,0.175l0.042,0.18l0.025,0.182l0.009,0.185l-0.009,0.185l-0.025,0.182l-0.042,0.18l-0.059,0.175l-0.075,0.169l-0.09,0.162l-0.104,0.152l-0.118,0.142l-0.131,0.131l-0.142,0.118l-0.152,0.104l-0.162,0.09l-0.169,0.075l-0.175,0.059l-0.179,0.042l-0.183,0.025l-0.185,0.009l-44,0l-0.185,-0.009l-0.183,-0.025l-0.179,-0.042l-0.175,-0.059l-0.169,-0.075l-0.162,-0.09l-0.152,-0.104l-0.142,-0.118l-0.131,-0.131l-0.118,-0.142l-0.104,-0.152l-0.09,-0.162l-0.075,-0.169l-0.059,-0.175l-0.042,-0.18l-0.025,-0.182l-0.009,-0.185l0.009,-0.185l0.025,-0.182l0.042,-0.18l0.059,-0.175l0.075,-0.169l0.09,-0.162l0.104,-0.152l0.118,-0.142l0.131,-0.131l0.142,-0.118l0.152,-0.104l0.162,-0.09l0.169,-0.075l0.175,-0.059l0.179,-0.042l0.183,-0.025l0.185,-0.009l44,0l0.185,0.009Z" class="svg-icon-myles-lab-beaker"/>
    </g>
</svg>