<svg width="100%" height="100%" viewBox="0 0 128 128" version="1.1" xmlns="http://www.w3.org/2000/svg" xmlns:xlink="http://www.w3.org/1999/xlink" xml:space="preserve" class="svg-icon svg-icon-myles-red">
    <path d="M102.55,87.091l3.404,17.515l-83.908,0l3.404,-17.515l77.1,0M81.946,101.344c2.087,0 3.778,-1.695 3.778,-3.78c0,-2.08 -1.693,-3.776 -3.778,-3.776c-2.082,0 -3.777,1.696 -3.777,3.776c0,2.085 1.695,3.78 3.777,3.78M46.451,101.344c2.083,0 3.778,-1.695 3.778,-3.78c0,-2.08 -1.695,-3.776 -3.778,-3.776c-2.084,0 -3.778,1.696 -3.778,3.776c0,2.085 1.694,3.78 3.778,3.78M94.426,103.062c2.085,0 3.778,-1.697 3.778,-3.778c0,-2.083 -1.695,-3.777 -3.778,-3.777c-2.083,0 -3.778,1.692 -3.778,3.777c0,2.083 1.697,3.778 3.778,3.778M33.572,103.062c2.085,0 3.778,-1.697 3.778,-3.778c0,-2.083 -1.695,-3.777 -3.778,-3.777c-2.081,0 -3.776,1.692 -3.776,3.777c0,2.083 1.695,3.778 3.776,3.778"/>
    <path d="M126.839,75.547l0,-48.031c0,-2.277 -1.844,-4.122 -4.119,-4.122l-117.438,0c-2.277,0 -4.122,1.845 -4.122,4.122l0,48.031l-1.16,0l0,20.863l1.16,0l0,3.045c0,2.277 1.845,4.121 4.122,4.121l14.865,0l3.362,-17.292l0.244,-1.25l80.498,0l0.244,1.25l3.36,17.292l14.865,0c2.275,0 4.119,-1.844 4.119,-4.121l0,-3.045l1.161,0l0,-20.863l-1.161,0l0,0ZM37.558,66.661c-4.362,0 -7.898,-3.537 -7.898,-7.898c0,-4.362 3.536,-7.897 7.898,-7.897c4.363,0 7.9,3.535 7.9,7.897c0,4.361 -3.537,7.898 -7.9,7.898ZM78.487,65.116l-28.974,0l0,-12.706l28.973,0l0,12.706l0.001,0ZM90.687,66.661c-4.362,0 -7.898,-3.537 -7.898,-7.898c0,-4.362 3.536,-7.897 7.898,-7.897c4.362,0 7.899,3.535 7.899,7.897c0,4.361 -3.537,7.898 -7.899,7.898ZM118.943,44.684c0,1.137 -0.923,2.06 -2.061,2.06l-105.764,0c-1.137,0 -2.058,-0.923 -2.058,-2.06l0,-11.676c0,-1.137 0.921,-2.06 2.058,-2.06l105.764,0c1.138,0 2.061,0.923 2.061,2.06l0,11.676Z"/>
</svg>