<svg width="100%" height="100%" viewBox="0 0 128 128" version="1.1" xmlns="http://www.w3.org/2000/svg" xmlns:xlink="http://www.w3.org/1999/xlink" xml:space="preserve" class="svg-icon svg-icon-myles-life">
    <g>
        <g>
            <circle cx="64" cy="64" r="60" class="svg-icon-myles-life-bg"/>
            <path d="M64.413,0.001l0.413,0.004l0.412,0.007l0.411,0.009l0.411,0.012l0.41,0.014l0.41,0.017l0.408,0.019l0.409,0.022l0.407,0.025l0.407,0.027l0.406,0.03l0.406,0.032l0.405,0.035l0.404,0.037l0.404,0.04l0.402,0.042l0.402,0.044l0.402,0.048l0.4,0.049l0.4,0.053l0.399,0.054l0.399,0.057l0.397,0.06l0.397,0.062l0.396,0.064l0.395,0.067l0.394,0.069l0.394,0.072l0.393,0.074l0.391,0.076l0.391,0.079l0.391,0.081l0.389,0.084l0.388,0.086l0.388,0.088l0.387,0.091l0.385,0.093l0.385,0.095l0.384,0.098l0.383,0.1l0.382,0.102l0.381,0.104l0.381,0.107l0.379,0.109l0.378,0.112l0.378,0.113l0.376,0.116l0.375,0.118l0.375,0.121l0.373,0.122l0.372,0.125l0.372,0.127l0.37,0.129l0.369,0.132l0.368,0.133l0.368,0.136l0.366,0.138l0.365,0.14l0.364,0.143l0.363,0.144l0.361,0.147l0.361,0.149l0.36,0.151l0.358,0.153l0.357,0.155l0.356,0.157l0.355,0.159l0.354,0.162l0.353,0.163l0.352,0.166l0.35,0.167l0.349,0.17l0.348,0.172l0.347,0.174l0.346,0.175l0.344,0.178l0.343,0.18l0.342,0.182l0.341,0.184l0.339,0.186l0.339,0.187l0.337,0.19l0.335,0.192l0.335,0.194l0.333,0.195l0.332,0.198l0.33,0.2l0.329,0.201l0.328,0.203l0.327,0.206l0.325,0.207l0.324,0.209l0.323,0.211l0.321,0.213l0.32,0.215l0.318,0.216l0.317,0.219l0.316,0.22l0.314,0.222l0.313,0.224l0.312,0.226l0.31,0.228l0.308,0.229l0.308,0.232l0.305,0.233l0.305,0.235l0.303,0.236l0.301,0.239l0.3,0.24l0.299,0.242l0.297,0.243l0.295,0.246l0.294,0.247l0.293,0.249l0.291,0.25l0.289,0.253l0.288,0.254l0.287,0.255l0.284,0.258l0.284,0.259l0.281,0.26l0.281,0.263l0.278,0.264l0.277,0.266l0.276,0.267l0.273,0.269l0.273,0.27l0.27,0.273l0.269,0.273l0.267,0.276l0.266,0.277l0.264,0.278l0.262,0.281l0.261,0.281l0.259,0.284l0.258,0.284l0.255,0.287l0.254,0.288l0.253,0.289l0.25,0.291l0.249,0.293l0.247,0.294l0.246,0.295l0.243,0.297l0.242,0.299l0.24,0.3l0.239,0.301l0.236,0.303l0.235,0.304l0.233,0.306l0.232,0.308l0.229,0.308l0.228,0.31l0.226,0.312l0.224,0.313l0.222,0.314l0.22,0.316l0.219,0.317l0.216,0.318l0.215,0.32l0.213,0.321l0.211,0.323l0.209,0.324l0.207,0.325l0.206,0.327l0.203,0.328l0.201,0.329l0.2,0.33l0.198,0.332l0.195,0.333l0.194,0.335l0.192,0.335l0.19,0.337l0.187,0.339l0.186,0.339l0.184,0.341l0.182,0.342l0.18,0.343l0.178,0.344l0.175,0.346l0.174,0.347l0.172,0.348l0.17,0.349l0.167,0.35l0.166,0.352l0.163,0.353l0.162,0.354l0.159,0.355l0.157,0.356l0.155,0.357l0.153,0.358l0.151,0.36l0.149,0.361l0.147,0.361l0.144,0.363l0.143,0.364l0.14,0.365l0.138,0.366l0.136,0.368l0.133,0.368l0.132,0.369l0.129,0.37l0.127,0.372l0.125,0.372l0.122,0.373l0.121,0.375l0.118,0.375l0.116,0.376l0.113,0.378l0.112,0.378l0.109,0.379l0.107,0.381l0.104,0.381l0.102,0.382l0.1,0.383l0.098,0.384l0.095,0.385l0.093,0.385l0.091,0.387l0.088,0.388l0.086,0.388l0.084,0.389l0.081,0.391l0.079,0.391l0.076,0.391l0.074,0.393l0.072,0.394l0.069,0.394l0.067,0.395l0.064,0.396l0.062,0.397l0.06,0.397l0.057,0.399l0.054,0.399l0.053,0.4l0.049,0.4l0.048,0.402l0.044,0.402l0.042,0.402l0.04,0.404l0.037,0.404l0.035,0.405l0.032,0.406l0.03,0.406l0.027,0.407l0.025,0.407l0.022,0.409l0.019,0.409l0.017,0.409l0.014,0.41l0.012,0.411l0.009,0.411l0.007,0.412l0.004,0.413l0.001,0.413l-0.001,0.413l-0.004,0.413l-0.007,0.412l-0.009,0.411l-0.012,0.411l-0.014,0.41l-0.017,0.409l-0.019,0.409l-0.022,0.409l-0.025,0.407l-0.027,0.407l-0.03,0.406l-0.032,0.406l-0.035,0.405l-0.037,0.404l-0.04,0.404l-0.042,0.402l-0.044,0.402l-0.048,0.402l-0.049,0.4l-0.053,0.4l-0.054,0.399l-0.057,0.399l-0.06,0.397l-0.062,0.397l-0.064,0.396l-0.067,0.395l-0.069,0.394l-0.072,0.394l-0.074,0.393l-0.076,0.391l-0.079,0.391l-0.081,0.391l-0.084,0.389l-0.086,0.388l-0.088,0.388l-0.091,0.387l-0.093,0.385l-0.095,0.385l-0.098,0.384l-0.1,0.383l-0.102,0.382l-0.104,0.381l-0.107,0.381l-0.109,0.379l-0.112,0.378l-0.113,0.378l-0.116,0.376l-0.118,0.375l-0.121,0.375l-0.122,0.373l-0.125,0.372l-0.127,0.372l-0.129,0.37l-0.132,0.369l-0.133,0.368l-0.136,0.368l-0.138,0.366l-0.14,0.365l-0.143,0.364l-0.144,0.363l-0.147,0.361l-0.149,0.361l-0.151,0.36l-0.153,0.358l-0.155,0.357l-0.157,0.356l-0.159,0.356l-0.162,0.353l-0.163,0.353l-0.166,0.352l-0.167,0.35l-0.17,0.349l-0.172,0.348l-0.174,0.347l-0.175,0.346l-0.178,0.344l-0.18,0.343l-0.182,0.342l-0.184,0.341l-0.186,0.339l-0.187,0.339l-0.19,0.337l-0.192,0.335l-0.194,0.335l-0.195,0.333l-0.198,0.332l-0.2,0.33l-0.201,0.329l-0.203,0.328l-0.206,0.327l-0.207,0.325l-0.209,0.324l-0.211,0.323l-0.213,0.321l-0.215,0.32l-0.216,0.318l-0.219,0.317l-0.22,0.316l-0.222,0.314l-0.224,0.313l-0.226,0.312l-0.228,0.31l-0.229,0.308l-0.232,0.308l-0.233,0.306l-0.235,0.304l-0.236,0.303l-0.239,0.301l-0.24,0.3l-0.242,0.299l-0.243,0.297l-0.246,0.295l-0.247,0.294l-0.249,0.293l-0.25,0.291l-0.253,0.289l-0.254,0.288l-0.255,0.287l-0.258,0.284l-0.259,0.284l-0.261,0.281l-0.262,0.281l-0.264,0.278l-0.266,0.277l-0.267,0.276l-0.269,0.273l-0.27,0.273l-0.273,0.27l-0.273,0.269l-0.276,0.267l-0.277,0.266l-0.278,0.264l-0.281,0.262l-0.281,0.261l-0.284,0.259l-0.284,0.258l-0.287,0.255l-0.288,0.254l-0.289,0.253l-0.291,0.25l-0.293,0.249l-0.294,0.247l-0.295,0.246l-0.297,0.243l-0.299,0.242l-0.3,0.24l-0.301,0.239l-0.303,0.236l-0.304,0.235l-0.306,0.233l-0.308,0.232l-0.308,0.229l-0.31,0.228l-0.312,0.226l-0.313,0.224l-0.314,0.222l-0.316,0.22l-0.317,0.219l-0.318,0.216l-0.32,0.215l-0.321,0.213l-0.323,0.211l-0.324,0.209l-0.325,0.207l-0.327,0.206l-0.328,0.203l-0.329,0.201l-0.33,0.2l-0.332,0.198l-0.333,0.195l-0.335,0.194l-0.335,0.192l-0.337,0.19l-0.339,0.187l-0.339,0.186l-0.341,0.184l-0.342,0.182l-0.343,0.18l-0.344,0.178l-0.346,0.175l-0.347,0.174l-0.348,0.172l-0.349,0.17l-0.35,0.167l-0.352,0.166l-0.353,0.163l-0.353,0.162l-0.356,0.159l-0.356,0.157l-0.357,0.155l-0.358,0.153l-0.36,0.151l-0.361,0.149l-0.361,0.147l-0.363,0.144l-0.364,0.143l-0.365,0.14l-0.366,0.138l-0.368,0.136l-0.368,0.133l-0.369,0.132l-0.37,0.129l-0.372,0.127l-0.372,0.125l-0.373,0.122l-0.375,0.121l-0.375,0.118l-0.376,0.116l-0.378,0.113l-0.378,0.112l-0.379,0.109l-0.381,0.107l-0.381,0.104l-0.382,0.102l-0.383,0.1l-0.384,0.098l-0.385,0.095l-0.385,0.093l-0.387,0.091l-0.388,0.088l-0.388,0.086l-0.389,0.084l-0.391,0.081l-0.391,0.079l-0.391,0.076l-0.393,0.074l-0.394,0.072l-0.394,0.069l-0.395,0.067l-0.396,0.064l-0.397,0.062l-0.397,0.06l-0.399,0.057l-0.399,0.054l-0.4,0.053l-0.4,0.049l-0.402,0.048l-0.402,0.044l-0.402,0.042l-0.404,0.04l-0.404,0.037l-0.405,0.035l-0.406,0.032l-0.406,0.03l-0.407,0.027l-0.407,0.025l-0.409,0.022l-0.409,0.019l-0.409,0.017l-0.41,0.014l-0.411,0.012l-0.411,0.009l-0.412,0.007l-0.413,0.004l-0.413,0.001l-0.413,-0.001l-0.413,-0.004l-0.412,-0.007l-0.411,-0.009l-0.411,-0.012l-0.41,-0.014l-0.409,-0.017l-0.409,-0.019l-0.409,-0.022l-0.407,-0.025l-0.407,-0.027l-0.406,-0.03l-0.406,-0.032l-0.405,-0.035l-0.404,-0.037l-0.404,-0.04l-0.402,-0.042l-0.402,-0.044l-0.402,-0.048l-0.4,-0.049l-0.4,-0.053l-0.399,-0.054l-0.399,-0.057l-0.397,-0.06l-0.397,-0.062l-0.396,-0.064l-0.395,-0.067l-0.394,-0.069l-0.394,-0.072l-0.393,-0.074l-0.391,-0.076l-0.391,-0.079l-0.391,-0.081l-0.389,-0.084l-0.388,-0.086l-0.388,-0.088l-0.387,-0.091l-0.385,-0.093l-0.385,-0.095l-0.384,-0.098l-0.383,-0.1l-0.382,-0.102l-0.381,-0.104l-0.381,-0.107l-0.379,-0.109l-0.378,-0.112l-0.378,-0.113l-0.376,-0.116l-0.375,-0.118l-0.375,-0.121l-0.373,-0.122l-0.372,-0.125l-0.372,-0.127l-0.37,-0.129l-0.369,-0.132l-0.368,-0.133l-0.368,-0.136l-0.366,-0.138l-0.365,-0.14l-0.364,-0.143l-0.363,-0.144l-0.361,-0.147l-0.361,-0.149l-0.36,-0.151l-0.358,-0.153l-0.357,-0.155l-0.356,-0.157l-0.355,-0.159l-0.354,-0.162l-0.353,-0.163l-0.352,-0.166l-0.35,-0.167l-0.349,-0.17l-0.348,-0.172l-0.347,-0.174l-0.346,-0.175l-0.344,-0.178l-0.343,-0.18l-0.342,-0.182l-0.341,-0.184l-0.339,-0.186l-0.339,-0.187l-0.337,-0.19l-0.335,-0.192l-0.335,-0.194l-0.333,-0.195l-0.332,-0.198l-0.33,-0.2l-0.329,-0.201l-0.328,-0.203l-0.327,-0.206l-0.325,-0.207l-0.324,-0.209l-0.323,-0.211l-0.321,-0.213l-0.32,-0.215l-0.318,-0.216l-0.317,-0.219l-0.316,-0.22l-0.314,-0.222l-0.313,-0.224l-0.312,-0.226l-0.31,-0.228l-0.308,-0.229l-0.308,-0.232l-0.306,-0.233l-0.304,-0.235l-0.303,-0.236l-0.301,-0.239l-0.3,-0.24l-0.299,-0.242l-0.297,-0.243l-0.295,-0.246l-0.294,-0.247l-0.293,-0.249l-0.291,-0.25l-0.289,-0.253l-0.288,-0.254l-0.287,-0.255l-0.284,-0.258l-0.284,-0.259l-0.281,-0.261l-0.281,-0.262l-0.278,-0.264l-0.277,-0.266l-0.276,-0.267l-0.273,-0.269l-0.273,-0.27l-0.27,-0.273l-0.269,-0.273l-0.267,-0.276l-0.266,-0.277l-0.264,-0.278l-0.263,-0.281l-0.26,-0.281l-0.259,-0.284l-0.258,-0.284l-0.255,-0.287l-0.254,-0.288l-0.253,-0.289l-0.25,-0.291l-0.249,-0.293l-0.247,-0.294l-0.246,-0.295l-0.243,-0.297l-0.242,-0.299l-0.24,-0.3l-0.239,-0.301l-0.236,-0.303l-0.235,-0.305l-0.233,-0.305l-0.232,-0.308l-0.229,-0.308l-0.228,-0.31l-0.226,-0.312l-0.224,-0.313l-0.222,-0.314l-0.22,-0.316l-0.219,-0.317l-0.216,-0.318l-0.215,-0.32l-0.213,-0.321l-0.211,-0.323l-0.209,-0.324l-0.207,-0.325l-0.206,-0.327l-0.203,-0.328l-0.201,-0.329l-0.2,-0.33l-0.198,-0.332l-0.195,-0.333l-0.194,-0.335l-0.192,-0.335l-0.19,-0.337l-0.187,-0.339l-0.186,-0.339l-0.184,-0.341l-0.182,-0.342l-0.18,-0.343l-0.178,-0.344l-0.175,-0.346l-0.174,-0.347l-0.172,-0.348l-0.17,-0.349l-0.167,-0.35l-0.166,-0.352l-0.163,-0.353l-0.162,-0.354l-0.159,-0.355l-0.157,-0.356l-0.155,-0.357l-0.153,-0.358l-0.151,-0.36l-0.149,-0.361l-0.147,-0.361l-0.144,-0.363l-0.143,-0.364l-0.14,-0.365l-0.138,-0.366l-0.136,-0.368l-0.133,-0.368l-0.132,-0.369l-0.129,-0.37l-0.127,-0.372l-0.125,-0.372l-0.122,-0.373l-0.121,-0.375l-0.118,-0.375l-0.116,-0.376l-0.113,-0.378l-0.112,-0.378l-0.109,-0.379l-0.107,-0.381l-0.104,-0.381l-0.102,-0.382l-0.1,-0.383l-0.098,-0.384l-0.095,-0.385l-0.093,-0.385l-0.091,-0.387l-0.088,-0.388l-0.086,-0.388l-0.084,-0.389l-0.081,-0.391l-0.079,-0.391l-0.076,-0.391l-0.074,-0.393l-0.072,-0.394l-0.069,-0.394l-0.067,-0.395l-0.064,-0.396l-0.062,-0.397l-0.06,-0.397l-0.057,-0.399l-0.054,-0.399l-0.053,-0.4l-0.049,-0.4l-0.048,-0.402l-0.044,-0.402l-0.042,-0.402l-0.04,-0.404l-0.037,-0.404l-0.035,-0.405l-0.032,-0.406l-0.03,-0.406l-0.027,-0.407l-0.025,-0.407l-0.022,-0.409l-0.019,-0.408l-0.017,-0.41l-0.014,-0.41l-0.012,-0.411l-0.009,-0.411l-0.007,-0.412l-0.004,-0.413l-0.001,-0.413l0.001,-0.413l0.004,-0.413l0.007,-0.412l0.009,-0.411l0.012,-0.411l0.014,-0.41l0.017,-0.41l0.019,-0.408l0.022,-0.409l0.025,-0.407l0.027,-0.407l0.03,-0.406l0.032,-0.406l0.035,-0.405l0.037,-0.404l0.04,-0.404l0.042,-0.402l0.044,-0.402l0.048,-0.402l0.049,-0.4l0.053,-0.4l0.054,-0.399l0.057,-0.399l0.06,-0.397l0.062,-0.397l0.064,-0.396l0.067,-0.395l0.069,-0.394l0.072,-0.394l0.074,-0.393l0.076,-0.391l0.079,-0.391l0.081,-0.391l0.084,-0.389l0.086,-0.388l0.088,-0.388l0.091,-0.387l0.093,-0.385l0.095,-0.385l0.098,-0.384l0.1,-0.383l0.102,-0.382l0.104,-0.381l0.107,-0.381l0.109,-0.379l0.112,-0.378l0.113,-0.378l0.116,-0.376l0.118,-0.375l0.121,-0.375l0.122,-0.373l0.125,-0.372l0.127,-0.372l0.129,-0.37l0.132,-0.369l0.133,-0.368l0.136,-0.368l0.138,-0.366l0.14,-0.365l0.143,-0.364l0.144,-0.363l0.147,-0.361l0.149,-0.361l0.151,-0.36l0.153,-0.358l0.155,-0.357l0.157,-0.356l0.159,-0.355l0.162,-0.354l0.163,-0.353l0.166,-0.352l0.167,-0.35l0.17,-0.349l0.172,-0.348l0.174,-0.347l0.175,-0.346l0.178,-0.344l0.18,-0.343l0.182,-0.342l0.184,-0.341l0.186,-0.339l0.187,-0.339l0.19,-0.337l0.192,-0.335l0.194,-0.335l0.195,-0.333l0.198,-0.332l0.2,-0.33l0.201,-0.329l0.203,-0.328l0.206,-0.327l0.207,-0.325l0.209,-0.324l0.211,-0.323l0.213,-0.321l0.215,-0.32l0.216,-0.318l0.219,-0.317l0.22,-0.316l0.222,-0.314l0.224,-0.313l0.226,-0.312l0.228,-0.31l0.229,-0.308l0.232,-0.308l0.233,-0.305l0.235,-0.305l0.236,-0.303l0.239,-0.301l0.24,-0.3l0.242,-0.299l0.243,-0.297l0.246,-0.295l0.247,-0.294l0.249,-0.293l0.25,-0.291l0.253,-0.289l0.254,-0.288l0.255,-0.287l0.258,-0.284l0.259,-0.284l0.26,-0.281l0.263,-0.281l0.264,-0.278l0.266,-0.277l0.267,-0.276l0.269,-0.273l0.27,-0.273l0.273,-0.27l0.273,-0.269l0.276,-0.267l0.277,-0.266l0.278,-0.264l0.281,-0.263l0.281,-0.26l0.284,-0.259l0.284,-0.258l0.287,-0.255l0.288,-0.254l0.289,-0.253l0.291,-0.25l0.293,-0.249l0.294,-0.247l0.295,-0.246l0.297,-0.243l0.299,-0.242l0.3,-0.24l0.301,-0.239l0.303,-0.236l0.305,-0.235l0.305,-0.233l0.308,-0.232l0.308,-0.229l0.31,-0.228l0.312,-0.226l0.313,-0.224l0.314,-0.222l0.316,-0.22l0.317,-0.219l0.318,-0.216l0.32,-0.215l0.321,-0.213l0.323,-0.211l0.324,-0.209l0.325,-0.207l0.327,-0.206l0.328,-0.203l0.329,-0.201l0.33,-0.2l0.332,-0.198l0.333,-0.195l0.335,-0.194l0.335,-0.192l0.337,-0.19l0.339,-0.187l0.339,-0.186l0.341,-0.184l0.342,-0.182l0.343,-0.18l0.344,-0.178l0.346,-0.175l0.347,-0.174l0.348,-0.172l0.349,-0.17l0.35,-0.167l0.352,-0.166l0.353,-0.163l0.354,-0.162l0.355,-0.159l0.356,-0.157l0.357,-0.155l0.358,-0.153l0.36,-0.151l0.361,-0.149l0.361,-0.147l0.363,-0.144l0.364,-0.143l0.365,-0.14l0.366,-0.138l0.368,-0.136l0.368,-0.133l0.369,-0.132l0.37,-0.129l0.372,-0.127l0.372,-0.125l0.373,-0.122l0.375,-0.121l0.375,-0.118l0.376,-0.116l0.378,-0.113l0.378,-0.112l0.379,-0.109l0.381,-0.107l0.381,-0.104l0.382,-0.102l0.383,-0.1l0.384,-0.098l0.385,-0.095l0.385,-0.093l0.387,-0.091l0.388,-0.088l0.388,-0.086l0.389,-0.084l0.391,-0.081l0.391,-0.079l0.391,-0.076l0.393,-0.074l0.394,-0.072l0.394,-0.069l0.395,-0.067l0.396,-0.064l0.397,-0.062l0.397,-0.06l0.399,-0.057l0.399,-0.054l0.4,-0.053l0.4,-0.049l0.402,-0.048l0.402,-0.044l0.402,-0.042l0.404,-0.04l0.404,-0.037l0.405,-0.035l0.406,-0.032l0.406,-0.03l0.407,-0.027l0.407,-0.025l0.409,-0.022l0.408,-0.019l0.41,-0.017l0.41,-0.014l0.411,-0.012l0.411,-0.009l0.412,-0.007l0.413,-0.004l0.413,-0.001l0.413,0.001ZM63.638,8.001l-0.362,0.004l-0.361,0.005l-0.361,0.008l-0.36,0.011l-0.36,0.012l-0.359,0.015l-0.358,0.017l-0.358,0.019l-0.357,0.022l-0.356,0.024l-0.356,0.026l-0.355,0.028l-0.354,0.03l-0.354,0.033l-0.353,0.035l-0.353,0.036l-0.352,0.04l-0.351,0.041l-0.35,0.043l-0.35,0.046l-0.349,0.048l-0.349,0.05l-0.347,0.052l-0.347,0.054l-0.347,0.056l-0.345,0.059l-0.345,0.06l-0.344,0.063l-0.344,0.065l-0.342,0.067l-0.342,0.069l-0.341,0.071l-0.34,0.073l-0.34,0.075l-0.339,0.077l-0.338,0.079l-0.337,0.081l-0.336,0.084l-0.336,0.085l-0.335,0.087l-0.334,0.09l-0.333,0.091l-0.332,0.093l-0.332,0.096l-0.33,0.097l-0.33,0.099l-0.329,0.102l-0.328,0.103l-0.327,0.105l-0.327,0.107l-0.325,0.109l-0.325,0.111l-0.323,0.113l-0.323,0.115l-0.322,0.117l-0.321,0.119l-0.32,0.12l-0.319,0.123l-0.318,0.124l-0.317,0.127l-0.317,0.128l-0.315,0.13l-0.314,0.132l-0.314,0.134l-0.312,0.135l-0.311,0.138l-0.311,0.139l-0.309,0.141l-0.309,0.143l-0.307,0.145l-0.307,0.147l-0.305,0.148l-0.304,0.15l-0.304,0.152l-0.302,0.154l-0.301,0.155l-0.3,0.158l-0.3,0.159l-0.298,0.161l-0.297,0.162l-0.295,0.164l-0.295,0.167l-0.294,0.167l-0.292,0.17l-0.292,0.171l-0.29,0.173l-0.29,0.175l-0.288,0.176l-0.287,0.178l-0.285,0.18l-0.285,0.181l-0.284,0.183l-0.282,0.185l-0.281,0.186l-0.28,0.188l-0.279,0.19l-0.277,0.191l-0.277,0.193l-0.275,0.194l-0.274,0.196l-0.273,0.198l-0.271,0.199l-0.27,0.201l-0.269,0.203l-0.268,0.204l-0.267,0.206l-0.265,0.207l-0.264,0.209l-0.263,0.21l-0.261,0.212l-0.26,0.213l-0.259,0.215l-0.257,0.216l-0.256,0.218l-0.255,0.22l-0.254,0.221l-0.252,0.222l-0.251,0.224l-0.249,0.226l-0.248,0.227l-0.247,0.228l-0.246,0.23l-0.244,0.231l-0.242,0.233l-0.241,0.234l-0.24,0.235l-0.239,0.237l-0.237,0.239l-0.235,0.24l-0.234,0.241l-0.233,0.242l-0.231,0.244l-0.23,0.246l-0.228,0.247l-0.227,0.248l-0.226,0.249l-0.224,0.251l-0.222,0.252l-0.221,0.254l-0.22,0.255l-0.218,0.256l-0.216,0.257l-0.215,0.259l-0.213,0.26l-0.212,0.261l-0.21,0.263l-0.209,0.264l-0.207,0.265l-0.206,0.267l-0.204,0.268l-0.203,0.269l-0.201,0.27l-0.199,0.271l-0.198,0.273l-0.196,0.274l-0.194,0.275l-0.193,0.277l-0.191,0.277l-0.19,0.279l-0.188,0.28l-0.186,0.281l-0.185,0.282l-0.183,0.284l-0.181,0.285l-0.18,0.285l-0.178,0.287l-0.176,0.288l-0.175,0.29l-0.173,0.29l-0.171,0.292l-0.17,0.292l-0.167,0.294l-0.167,0.295l-0.164,0.295l-0.162,0.297l-0.161,0.298l-0.159,0.3l-0.158,0.3l-0.155,0.301l-0.154,0.302l-0.152,0.304l-0.15,0.304l-0.148,0.305l-0.147,0.307l-0.145,0.307l-0.143,0.309l-0.141,0.309l-0.139,0.311l-0.138,0.311l-0.135,0.312l-0.134,0.314l-0.132,0.314l-0.13,0.315l-0.128,0.317l-0.127,0.317l-0.124,0.318l-0.123,0.319l-0.12,0.32l-0.119,0.321l-0.117,0.322l-0.115,0.323l-0.113,0.323l-0.111,0.325l-0.109,0.325l-0.107,0.327l-0.105,0.327l-0.103,0.328l-0.102,0.329l-0.099,0.33l-0.097,0.33l-0.096,0.332l-0.093,0.332l-0.091,0.333l-0.09,0.334l-0.087,0.335l-0.085,0.336l-0.084,0.336l-0.081,0.337l-0.079,0.338l-0.077,0.339l-0.075,0.34l-0.073,0.34l-0.071,0.341l-0.069,0.342l-0.067,0.342l-0.065,0.344l-0.063,0.344l-0.06,0.345l-0.059,0.345l-0.056,0.347l-0.054,0.347l-0.052,0.347l-0.05,0.349l-0.048,0.349l-0.046,0.35l-0.043,0.35l-0.041,0.351l-0.04,0.352l-0.036,0.353l-0.035,0.353l-0.033,0.354l-0.03,0.354l-0.028,0.355l-0.026,0.356l-0.024,0.356l-0.022,0.357l-0.019,0.358l-0.017,0.358l-0.015,0.359l-0.012,0.36l-0.011,0.36l-0.008,0.361l-0.005,0.361l-0.004,0.362l-0.001,0.362l0.001,0.362l0.004,0.362l0.005,0.361l0.008,0.361l0.011,0.36l0.012,0.36l0.015,0.359l0.017,0.358l0.019,0.358l0.022,0.357l0.024,0.356l0.026,0.356l0.028,0.355l0.03,0.354l0.033,0.354l0.035,0.353l0.036,0.353l0.04,0.352l0.041,0.351l0.043,0.35l0.046,0.35l0.048,0.349l0.05,0.349l0.052,0.347l0.054,0.347l0.056,0.347l0.059,0.345l0.06,0.345l0.063,0.344l0.065,0.344l0.067,0.342l0.069,0.342l0.071,0.341l0.073,0.34l0.075,0.34l0.077,0.339l0.079,0.338l0.081,0.337l0.084,0.336l0.085,0.336l0.087,0.335l0.09,0.334l0.091,0.333l0.093,0.332l0.096,0.332l0.097,0.33l0.099,0.33l0.102,0.329l0.103,0.328l0.105,0.327l0.107,0.327l0.109,0.325l0.111,0.325l0.113,0.323l0.115,0.323l0.117,0.322l0.119,0.321l0.12,0.32l0.123,0.319l0.124,0.318l0.127,0.317l0.128,0.317l0.13,0.315l0.132,0.314l0.134,0.314l0.135,0.312l0.138,0.311l0.139,0.311l0.141,0.309l0.143,0.309l0.145,0.307l0.147,0.307l0.148,0.305l0.15,0.304l0.152,0.304l0.154,0.302l0.155,0.301l0.158,0.3l0.159,0.3l0.161,0.298l0.162,0.297l0.164,0.295l0.167,0.295l0.167,0.294l0.17,0.292l0.171,0.292l0.173,0.29l0.175,0.29l0.176,0.288l0.178,0.287l0.18,0.285l0.181,0.285l0.183,0.284l0.185,0.282l0.186,0.281l0.188,0.28l0.19,0.279l0.191,0.277l0.193,0.277l0.194,0.275l0.196,0.274l0.198,0.273l0.199,0.271l0.201,0.27l0.203,0.269l0.204,0.268l0.206,0.267l0.207,0.265l0.209,0.264l0.21,0.263l0.212,0.261l0.213,0.26l0.215,0.259l0.216,0.257l0.218,0.256l0.22,0.255l0.221,0.254l0.222,0.252l0.224,0.251l0.226,0.249l0.227,0.248l0.228,0.247l0.23,0.246l0.231,0.244l0.233,0.242l0.234,0.241l0.235,0.24l0.237,0.239l0.239,0.237l0.24,0.235l0.241,0.234l0.242,0.233l0.244,0.231l0.246,0.23l0.247,0.228l0.248,0.227l0.249,0.226l0.251,0.224l0.252,0.222l0.254,0.221l0.255,0.22l0.256,0.218l0.257,0.216l0.259,0.215l0.26,0.213l0.261,0.212l0.263,0.21l0.264,0.209l0.265,0.207l0.267,0.206l0.268,0.204l0.269,0.203l0.27,0.201l0.271,0.199l0.273,0.198l0.274,0.196l0.275,0.194l0.277,0.193l0.277,0.191l0.279,0.19l0.28,0.188l0.281,0.186l0.282,0.185l0.284,0.183l0.285,0.181l0.285,0.18l0.287,0.178l0.288,0.176l0.29,0.175l0.29,0.173l0.292,0.171l0.292,0.17l0.294,0.167l0.295,0.167l0.295,0.164l0.297,0.162l0.298,0.161l0.3,0.159l0.3,0.158l0.301,0.155l0.302,0.154l0.304,0.152l0.304,0.15l0.305,0.148l0.307,0.147l0.307,0.145l0.309,0.143l0.309,0.141l0.311,0.139l0.311,0.138l0.312,0.135l0.314,0.134l0.314,0.132l0.315,0.13l0.317,0.128l0.317,0.127l0.318,0.124l0.319,0.123l0.32,0.12l0.321,0.119l0.322,0.117l0.323,0.115l0.323,0.113l0.325,0.111l0.325,0.109l0.327,0.107l0.327,0.105l0.328,0.103l0.329,0.102l0.33,0.099l0.33,0.097l0.332,0.096l0.332,0.093l0.333,0.091l0.334,0.09l0.335,0.087l0.336,0.085l0.336,0.084l0.337,0.081l0.338,0.079l0.339,0.077l0.34,0.075l0.34,0.073l0.341,0.071l0.342,0.069l0.342,0.067l0.344,0.065l0.344,0.063l0.345,0.06l0.345,0.059l0.347,0.056l0.347,0.054l0.347,0.052l0.349,0.05l0.349,0.048l0.35,0.046l0.35,0.043l0.351,0.041l0.352,0.04l0.353,0.036l0.353,0.035l0.354,0.033l0.354,0.03l0.355,0.028l0.356,0.026l0.356,0.024l0.358,0.022l0.357,0.019l0.358,0.017l0.359,0.015l0.36,0.012l0.36,0.011l0.36,0.008l0.362,0.005l0.362,0.004l0.362,0.001l0.362,-0.001l0.362,-0.004l0.362,-0.005l0.36,-0.008l0.36,-0.011l0.36,-0.012l0.359,-0.015l0.358,-0.017l0.357,-0.019l0.358,-0.022l0.356,-0.024l0.356,-0.026l0.355,-0.028l0.354,-0.03l0.354,-0.033l0.353,-0.035l0.353,-0.036l0.352,-0.04l0.351,-0.041l0.35,-0.043l0.35,-0.046l0.349,-0.048l0.349,-0.05l0.347,-0.052l0.347,-0.054l0.347,-0.056l0.345,-0.059l0.345,-0.06l0.344,-0.063l0.344,-0.065l0.342,-0.067l0.342,-0.069l0.341,-0.071l0.34,-0.073l0.34,-0.075l0.339,-0.077l0.338,-0.079l0.337,-0.081l0.336,-0.084l0.336,-0.085l0.335,-0.087l0.334,-0.09l0.333,-0.091l0.332,-0.093l0.332,-0.096l0.33,-0.097l0.33,-0.099l0.329,-0.102l0.328,-0.103l0.327,-0.105l0.327,-0.107l0.325,-0.109l0.325,-0.111l0.323,-0.113l0.323,-0.115l0.322,-0.117l0.321,-0.119l0.32,-0.12l0.319,-0.123l0.318,-0.124l0.317,-0.127l0.317,-0.128l0.315,-0.13l0.314,-0.132l0.314,-0.134l0.312,-0.135l0.311,-0.138l0.311,-0.139l0.309,-0.141l0.309,-0.143l0.307,-0.145l0.307,-0.147l0.305,-0.148l0.304,-0.15l0.304,-0.152l0.302,-0.154l0.301,-0.155l0.3,-0.158l0.3,-0.159l0.298,-0.161l0.297,-0.162l0.295,-0.164l0.295,-0.167l0.294,-0.167l0.293,-0.17l0.291,-0.171l0.29,-0.173l0.29,-0.175l0.288,-0.176l0.287,-0.178l0.285,-0.18l0.285,-0.181l0.284,-0.183l0.282,-0.185l0.281,-0.186l0.28,-0.188l0.279,-0.19l0.277,-0.191l0.277,-0.193l0.275,-0.194l0.274,-0.196l0.273,-0.198l0.271,-0.199l0.27,-0.201l0.269,-0.203l0.268,-0.204l0.267,-0.206l0.265,-0.207l0.264,-0.209l0.263,-0.21l0.261,-0.212l0.26,-0.213l0.259,-0.215l0.257,-0.216l0.256,-0.218l0.255,-0.22l0.254,-0.221l0.252,-0.222l0.251,-0.224l0.249,-0.226l0.248,-0.227l0.247,-0.228l0.246,-0.23l0.244,-0.231l0.242,-0.233l0.241,-0.234l0.24,-0.235l0.239,-0.237l0.237,-0.239l0.235,-0.24l0.234,-0.241l0.233,-0.242l0.231,-0.244l0.23,-0.246l0.228,-0.247l0.227,-0.248l0.226,-0.249l0.224,-0.251l0.222,-0.252l0.221,-0.254l0.22,-0.255l0.218,-0.256l0.216,-0.257l0.215,-0.259l0.213,-0.26l0.212,-0.261l0.21,-0.263l0.209,-0.264l0.207,-0.265l0.206,-0.267l0.204,-0.268l0.203,-0.269l0.201,-0.27l0.199,-0.271l0.198,-0.273l0.196,-0.274l0.194,-0.275l0.193,-0.277l0.191,-0.277l0.19,-0.279l0.188,-0.28l0.186,-0.281l0.185,-0.282l0.183,-0.284l0.181,-0.285l0.18,-0.285l0.178,-0.287l0.176,-0.288l0.175,-0.29l0.173,-0.29l0.171,-0.291l0.17,-0.293l0.167,-0.294l0.167,-0.295l0.164,-0.295l0.162,-0.297l0.161,-0.298l0.159,-0.3l0.158,-0.3l0.155,-0.301l0.154,-0.302l0.152,-0.304l0.15,-0.304l0.148,-0.305l0.147,-0.307l0.145,-0.307l0.143,-0.309l0.141,-0.309l0.139,-0.311l0.138,-0.311l0.135,-0.312l0.134,-0.314l0.132,-0.314l0.13,-0.315l0.128,-0.317l0.127,-0.317l0.124,-0.318l0.123,-0.319l0.12,-0.32l0.119,-0.321l0.117,-0.322l0.115,-0.323l0.113,-0.323l0.111,-0.325l0.109,-0.325l0.107,-0.327l0.105,-0.327l0.103,-0.328l0.102,-0.329l0.099,-0.33l0.097,-0.33l0.096,-0.332l0.093,-0.332l0.091,-0.333l0.09,-0.334l0.087,-0.335l0.085,-0.336l0.084,-0.336l0.081,-0.337l0.079,-0.338l0.077,-0.339l0.075,-0.34l0.073,-0.34l0.071,-0.341l0.069,-0.342l0.067,-0.342l0.065,-0.344l0.063,-0.344l0.06,-0.345l0.059,-0.345l0.056,-0.347l0.054,-0.347l0.052,-0.347l0.05,-0.349l0.048,-0.349l0.046,-0.35l0.043,-0.35l0.041,-0.351l0.04,-0.352l0.036,-0.353l0.035,-0.353l0.033,-0.354l0.03,-0.354l0.028,-0.355l0.026,-0.356l0.024,-0.356l0.022,-0.358l0.019,-0.357l0.017,-0.358l0.015,-0.359l0.012,-0.36l0.011,-0.36l0.008,-0.36l0.005,-0.362l0.004,-0.362l0.001,-0.362l-0.001,-0.362l-0.004,-0.362l-0.005,-0.362l-0.008,-0.36l-0.011,-0.36l-0.012,-0.36l-0.015,-0.359l-0.017,-0.358l-0.019,-0.357l-0.022,-0.358l-0.024,-0.356l-0.026,-0.356l-0.028,-0.355l-0.03,-0.354l-0.033,-0.354l-0.035,-0.353l-0.036,-0.353l-0.04,-0.352l-0.041,-0.351l-0.043,-0.35l-0.046,-0.35l-0.048,-0.349l-0.05,-0.349l-0.052,-0.347l-0.054,-0.347l-0.056,-0.347l-0.059,-0.345l-0.06,-0.345l-0.063,-0.344l-0.065,-0.344l-0.067,-0.342l-0.069,-0.342l-0.071,-0.341l-0.073,-0.34l-0.075,-0.34l-0.077,-0.339l-0.079,-0.338l-0.081,-0.337l-0.084,-0.336l-0.085,-0.336l-0.087,-0.335l-0.09,-0.334l-0.091,-0.333l-0.093,-0.332l-0.096,-0.332l-0.097,-0.33l-0.099,-0.33l-0.102,-0.329l-0.103,-0.328l-0.105,-0.327l-0.107,-0.327l-0.109,-0.325l-0.111,-0.325l-0.113,-0.323l-0.115,-0.323l-0.117,-0.322l-0.119,-0.321l-0.12,-0.32l-0.123,-0.319l-0.124,-0.318l-0.127,-0.317l-0.128,-0.317l-0.13,-0.315l-0.132,-0.314l-0.134,-0.314l-0.135,-0.312l-0.138,-0.311l-0.139,-0.311l-0.141,-0.309l-0.143,-0.309l-0.145,-0.307l-0.147,-0.307l-0.148,-0.305l-0.15,-0.304l-0.152,-0.304l-0.154,-0.302l-0.155,-0.301l-0.158,-0.3l-0.159,-0.3l-0.161,-0.298l-0.162,-0.297l-0.164,-0.295l-0.167,-0.295l-0.167,-0.294l-0.17,-0.292l-0.171,-0.292l-0.173,-0.29l-0.175,-0.29l-0.176,-0.288l-0.178,-0.287l-0.18,-0.285l-0.181,-0.285l-0.183,-0.284l-0.185,-0.282l-0.186,-0.281l-0.188,-0.28l-0.19,-0.279l-0.191,-0.277l-0.193,-0.277l-0.194,-0.275l-0.196,-0.274l-0.198,-0.273l-0.199,-0.271l-0.201,-0.27l-0.203,-0.269l-0.204,-0.268l-0.206,-0.267l-0.207,-0.265l-0.209,-0.264l-0.21,-0.263l-0.212,-0.261l-0.213,-0.26l-0.215,-0.259l-0.216,-0.257l-0.218,-0.256l-0.22,-0.255l-0.221,-0.254l-0.222,-0.252l-0.224,-0.251l-0.226,-0.249l-0.227,-0.248l-0.228,-0.247l-0.23,-0.246l-0.231,-0.244l-0.233,-0.242l-0.234,-0.241l-0.235,-0.24l-0.237,-0.239l-0.239,-0.237l-0.24,-0.235l-0.241,-0.234l-0.242,-0.233l-0.244,-0.231l-0.246,-0.23l-0.247,-0.228l-0.248,-0.227l-0.249,-0.226l-0.251,-0.224l-0.252,-0.222l-0.254,-0.221l-0.255,-0.22l-0.256,-0.218l-0.257,-0.216l-0.259,-0.215l-0.26,-0.213l-0.261,-0.212l-0.263,-0.21l-0.264,-0.209l-0.265,-0.207l-0.267,-0.206l-0.268,-0.204l-0.269,-0.203l-0.27,-0.201l-0.271,-0.199l-0.273,-0.198l-0.274,-0.196l-0.275,-0.194l-0.277,-0.193l-0.277,-0.191l-0.279,-0.19l-0.28,-0.188l-0.281,-0.186l-0.282,-0.185l-0.284,-0.183l-0.285,-0.181l-0.285,-0.18l-0.287,-0.178l-0.288,-0.176l-0.29,-0.175l-0.29,-0.173l-0.292,-0.171l-0.292,-0.17l-0.294,-0.167l-0.295,-0.167l-0.295,-0.164l-0.297,-0.162l-0.298,-0.161l-0.3,-0.159l-0.3,-0.158l-0.301,-0.155l-0.302,-0.154l-0.304,-0.152l-0.304,-0.15l-0.305,-0.148l-0.307,-0.147l-0.307,-0.145l-0.309,-0.143l-0.309,-0.141l-0.311,-0.139l-0.311,-0.138l-0.312,-0.135l-0.314,-0.134l-0.314,-0.132l-0.315,-0.13l-0.317,-0.128l-0.317,-0.127l-0.318,-0.124l-0.319,-0.123l-0.32,-0.12l-0.321,-0.119l-0.322,-0.117l-0.323,-0.115l-0.323,-0.113l-0.325,-0.111l-0.325,-0.109l-0.327,-0.107l-0.327,-0.105l-0.328,-0.103l-0.329,-0.102l-0.33,-0.099l-0.33,-0.097l-0.332,-0.096l-0.332,-0.093l-0.333,-0.091l-0.334,-0.09l-0.335,-0.087l-0.336,-0.085l-0.336,-0.084l-0.337,-0.081l-0.338,-0.079l-0.339,-0.077l-0.34,-0.075l-0.34,-0.073l-0.341,-0.071l-0.342,-0.069l-0.342,-0.067l-0.344,-0.065l-0.344,-0.063l-0.345,-0.06l-0.345,-0.059l-0.347,-0.056l-0.347,-0.054l-0.347,-0.052l-0.349,-0.05l-0.349,-0.048l-0.35,-0.046l-0.35,-0.043l-0.351,-0.041l-0.352,-0.04l-0.353,-0.036l-0.353,-0.035l-0.354,-0.033l-0.354,-0.03l-0.355,-0.028l-0.356,-0.026l-0.356,-0.024l-0.357,-0.022l-0.358,-0.019l-0.358,-0.017l-0.359,-0.015l-0.36,-0.012l-0.36,-0.011l-0.361,-0.008l-0.361,-0.005l-0.362,-0.004l-0.362,-0.001l-0.362,0.001Z" class="svg-icon-myles-life-border"/>
        </g>
        <g>
            <path d="M54,54l-20,40l40,-20l20,-40l-40,20ZM64,72c-4.418,0 -8,-3.582 -8,-8c0,-4.418 3.582,-8 8,-8c4.418,0 8,3.582 8,8c0,4.418 -3.582,8 -8,8Z" class="svg-icon-myles-life-arrow"/>
            <circle cx="64" cy="64" r="4" class="svg-icon-myles-life-spinner"/>
        </g>
        <g>
            <circle cx="64" cy="14" r="2" class="svg-icon-myles-life-direction"/>
            <circle cx="14" cy="64" r="2" class="svg-icon-myles-life-direction"/>
            <circle cx="114" cy="64" r="2" class="svg-icon-myles-life-direction"/>
            <circle cx="64" cy="114" r="2" class="svg-icon-myles-life-direction"/>
        </g>
    </g>
</svg>