<?xml version="1.0" encoding="UTF-8" standalone="no"?>
<svg width="79" height="101" viewBox="0 0 128 128" version="1.1" xmlns="http://www.w3.org/2000/svg" class="iconic iconic-size-lg">
    <g data-width="79" data-height="101" class="iconic-container" transform="translate(27 ) scale(1 1 ) ">
        <path d="M78.0370423,19.651 L71.8073423,7.08796 C71.5154423,6.49893 70.9146423,6.12631 70.2571423,6.12631 L68.1595423,6.12631 L65.5749423,0.956786 C65.2819423,0.370395 64.6827423,0 64.0272423,0 L14.1898423,0 C13.5343423,0 12.9352423,0.370395 12.6420423,0.956786 L10.0571423,6.12631 L7.96004228,6.12631 C7.30254228,6.12631 6.70194228,6.49893 6.40974228,7.08796 L0.180142281,19.651 C-0.0857577187,20.1873 -0.0557577187,20.8232 0.259942281,21.332 C0.575642281,21.841 1.13164228,22.1502 1.73034228,22.1502 L8.18254228,22.1502 L9.92284228,34.7825 L8.47834228,34.7825 C8.13144228,34.7825 7.80114228,34.9312 7.57114228,35.1912 C7.34124228,35.4507 7.23384228,35.7964 7.27574228,36.1409 L12.6090423,79.749 C12.6833423,80.3567 13.1994423,80.8132 13.8115423,80.8132 L16.2643423,80.8132 L18.7049423,98.5271 C18.8230423,99.3838 19.5547423,100.021 20.4191423,100.021 L57.7974423,100.021 C58.6622423,100.021 59.3936423,99.3838 59.5116423,98.5271 L61.9522423,80.8132 L64.4049423,80.8132 C65.0170423,80.8132 65.5331423,80.3567 65.6075423,79.749 L70.9411423,36.1409 C70.9831423,35.7964 70.8757423,35.4507 70.6459423,35.1912 C70.4155423,34.9312 70.0852423,34.7825 69.7384423,34.7825 L68.2937423,34.7825 L70.0342423,22.1502 L76.4863423,22.1502 C77.0849423,22.1502 77.6413423,21.841 77.9570423,21.332 C78.2728423,20.823 78.3032423,20.1873 78.0370423,19.651 L78.0370423,19.651 Z M56.2892423,96.5603 L21.9278423,96.5603 L19.7583423,80.813 L58.4587423,80.813 L56.2892423,96.5603 Z M64.8008423,34.7823 L13.4164423,34.7823 L11.6761423,22.15 L66.5410423,22.15 L64.8008423,34.7823 Z M68.5327423,18.6891 C68.5301423,18.6891 68.5285423,18.6887 68.5263423,18.6887 L9.69084228,18.6887 C9.68884228,18.6887 9.68654228,18.6891 9.68454228,18.6891 L4.52004228,18.6891 L9.03354228,9.58711 L42.2231423,9.58711 C43.1789423,9.58711 43.9538423,8.81228 43.9538423,7.85651 C43.9538423,6.90074 43.1789423,6.12611 42.2231423,6.12611 L13.9266423,6.12611 L15.2593423,3.46101 L62.9580423,3.46101 L64.2904423,6.12611 L60.9125423,6.12611 C59.9567423,6.12611 59.1819423,6.90094 59.1819423,7.85651 C59.1819423,8.81208 59.9567423,9.58711 60.9125423,9.58711 L69.1834423,9.58711 L73.6968423,18.6891 L68.5327423,18.6891 Z" class="iconic-property-fill"></path>
    </g>
</svg>