<?xml version="1.0" standalone="no"?>
<!DOCTYPE svg PUBLIC "-//W3C//DTD SVG 1.1//EN" "http://www.w3.org/Graphics/SVG/1.1/DTD/svg11.dtd">
<svg width="100px" height="100px" version="1.1" xmlns="http://www.w3.org/2000/svg" xmlns:xlink="http://www.w3.org/1999/xlink" xml:space="preserve" class="iconic">
    <g>
        <g>
            <path d="M88.9284,19.651L82.6987,7.08796C82.4068,6.49893 81.806,6.12631 81.1485,6.12631L79.0509,6.12631L76.4663,0.956786C76.1733,0.370395 75.5741,0 74.9186,0L25.0812,0C24.4257,0 23.8266,0.370395 23.5334,0.956786L20.9485,6.12631L18.8514,6.12631C18.1939,6.12631 17.5933,6.49893 17.3011,7.08796L11.0715,19.651C10.8056,20.1873 10.8356,20.8232 11.1513,21.332C11.467,21.841 12.023,22.1502 12.6217,22.1502L19.0739,22.1502L20.8142,34.7825L19.3697,34.7825C19.0228,34.7825 18.6925,34.9312 18.4625,35.1912C18.2326,35.4507 18.1252,35.7964 18.1671,36.1409L23.5004,79.749C23.5747,80.3567 24.0908,80.8132 24.7029,80.8132L27.1557,80.8132L29.5963,98.5271C29.7144,99.3838 30.4461,100.021 31.3105,100.021L68.6888,100.021C69.5536,100.021 70.285,99.3838 70.403,98.5271L72.8436,80.8132L75.2963,80.8132C75.9084,80.8132 76.4245,80.3567 76.4989,79.749L81.8325,36.1409C81.8745,35.7964 81.7671,35.4507 81.5373,35.1912C81.3069,34.9312 80.9766,34.7825 80.6298,34.7825L79.1851,34.7825L80.9256,22.1502L87.3777,22.1502C87.9763,22.1502 88.5327,21.841 88.8484,21.332C89.1642,20.823 89.1946,20.1873 88.9284,19.651ZM67.1806,96.5603L32.8192,96.5603L30.6497,80.813L69.3501,80.813ZM75.6922,34.7823L24.3078,34.7823L22.5675,22.15L77.4324,22.15ZM79.4241,18.6891C79.4215,18.6891 79.4199,18.6887 79.4177,18.6887L20.5822,18.6887C20.5802,18.6887 20.5779,18.6891 20.5759,18.6891L15.4114,18.6891L19.9249,9.58711L53.1145,9.58711C54.0703,9.58711 54.8452,8.81228 54.8452,7.85651C54.8452,6.90074 54.0703,6.12611 53.1145,6.12611L24.818,6.12611L26.1507,3.46101L73.8494,3.46101L75.1818,6.12611L71.8039,6.12611C70.8481,6.12611 70.0733,6.90094 70.0733,7.85651C70.0733,8.81208 70.8481,9.58711 71.8039,9.58711L80.0748,9.58711L84.5882,18.6891Z" style="fill:black;fill-rule:nonzero;"/>
        </g>
    </g>
</svg>
